<svg id="SvgjsSvg1001" width="360" height="360" xmlns="http://www.w3.org/2000/svg" version="1.1" xmlns:xlink="http://www.w3.org/1999/xlink" xmlns:svgjs="http://svgjs.com/svgjs"><defs id="SvgjsDefs1002"></defs><g id="SvgjsG1008"><svg xmlns="http://www.w3.org/2000/svg" enable-background="new 0 0 3163 2238.302" viewBox="0 0 3163 2238.302" width="360" height="360"><path fill="#71828b" d="M2670.073 552.915c-32.776-34.567-77.052-54.301-124.671-55.567-47.619-1.266-92.881 16.087-127.448 48.864-34.567 32.777-54.301 77.052-55.567 124.671-1.266 47.619 16.088 92.881 48.864 127.448 32.777 34.567 77.053 54.301 124.672 55.567 47.619 1.266 92.881-16.088 127.447-48.865 34.567-32.777 54.302-77.052 55.568-124.671 1.266-47.619-16.088-92.88-48.865-127.447zm-136.294 31.061c-17.933-1-35.351-3.496-51.613-7.311 13.387-32.468 32.509-54.921 53.395-59.729l-1.782 67.04zm-.496 18.638-1.687 63.447-68.243-1.814c1.422-25.279 5.829-49.111 12.433-69.974 18.122 4.404 37.547 7.256 57.497 8.341zm-2.182 82.076-1.687 63.447c-19.979.024-39.528 1.84-57.858 5.275-5.486-21.184-8.621-45.217-8.698-70.536l68.243 1.814zm-2.182 82.084-1.782 67.04c-20.602-5.911-38.503-29.349-50.146-62.482 16.442-2.945 33.967-4.512 51.928-4.558zm18.628.496c17.933 1 35.35 3.496 51.613 7.311-13.387 32.468-32.509 54.921-53.396 59.729l1.783-67.04zm.496-18.638 1.687-63.447 68.243 1.814c-1.422 25.28-5.83 49.112-12.433 69.974-18.123-4.404-37.547-7.256-57.497-8.341zm2.182-82.076 1.687-63.447c19.979-.024 39.528-1.84 57.859-5.275 5.486 21.184 8.621 45.217 8.698 70.536l-68.244-1.814zm2.182-82.084 1.782-67.04c20.601 5.911 38.503 29.349 50.146 62.482-16.442 2.945-33.967 4.512-51.928 4.558zm61.355-30.731c-5.15-10.689-10.942-19.961-17.248-27.741 22.474 8.411 42.517 21.738 58.861 38.633-9.91 4.482-20.865 8.262-32.591 11.279-2.66-7.791-5.668-15.209-9.022-22.171zm-139.619-3.712c-3.719 6.774-7.117 14.022-10.187 21.66-11.549-3.636-22.288-7.993-31.946-12.995 17.219-16.003 37.941-28.246 60.83-35.451-6.709 7.435-12.986 16.386-18.697 26.786zm-16.431 39.197c-7.12 22.702-11.578 48.047-13.001 74.525l-63.168-1.679c2.874-33.992 16.387-64.868 37.124-89.393 11.624 6.465 24.789 12.019 39.045 16.547zm-13.496 93.154c.014 26.517 3.119 52.063 9.023 75.111-14.477 3.764-27.918 8.611-39.869 14.449-19.405-25.593-31.258-57.143-32.322-91.239l63.168 1.679zm14.327 92.954c2.659 7.791 5.667 15.209 9.021 22.171 5.15 10.689 10.942 19.961 17.248 27.742-22.474-8.411-42.517-21.738-58.861-38.633 9.911-4.482 20.865-8.263 32.592-11.28zm148.64 25.883c3.719-6.774 7.117-14.022 10.187-21.66 11.549 3.636 22.288 7.993 31.946 12.995-17.219 16.003-37.941 28.246-60.83 35.451 6.709-7.434 12.986-16.386 18.697-26.786zm16.431-39.197c7.12-22.702 11.578-48.047 13.001-74.525l63.168 1.679c-2.874 33.992-16.387 64.868-37.124 89.393-11.624-6.465-24.789-12.019-39.045-16.547zm13.497-93.154c-.014-26.517-3.119-52.063-9.023-75.111 14.476-3.764 27.918-8.611 39.869-14.449 19.404 25.593 31.258 57.143 32.322 91.239l-63.168-1.679zM1656.969 494.471l171.672 254.289-115.774 71.346 323.081-9.266 64.979-221.327-79.486 52.242-90.474-132.987c-22.399-33.462-62.38-50.623-102.066-43.811l-171.932 29.514z" class="color47b574 svgShape"></path><path fill="#71828b" d="m1601.807 532.549-223.228 209.937 165.251 146.231 217.199-209.056-108.464-161.891c-14.887-22.222-31.272-3.546-50.758 14.779zM2346.146 1160.467l-302.288 52.501-17.686-134.837-123.834 298.551 175.317 149.906-15.116-93.908 158.374-28.09c39.699-6.734 71.727-36.183 81.761-75.179l43.472-168.944z" class="color47b574 svgShape"></path><path fill="#71828b" d="m2333.992 1094.551-100.129-289.618-201.074 90.889 101.794 283.756 192.109-32.667c26.37-4.484 16.04-27.08 7.3-52.36zM1415.269 1428.971l59.551-300.978 132.195 31.912-234.169-222.783-202.863 109.793 93.073 19.614-30.655 157.897c-7.971 39.47 8.013 79.936 40.805 103.305l142.063 101.24z" class="color47b574 svgShape"></path><path fill="#71828b" d="m1481.153 1441.298 306.256 10.55-12.622-220.3-301.384-6.891-38.497 191.027c-5.283 26.22 19.515 24.693 46.247 25.614z" class="color47b574 svgShape"></path><path fill="#86959c" d="M2603.726 1951.754c18.783.061 48.644-.299 67.427-.432 37.893-.268 61.076-1.311 98.91-.266 110.182 3.042 84.47 5.934 79.937 6.104-80.522 3.022-144.028 4.756-224.675 3.881-11.567-.125-43.684.091-55.247-.115-7.22-.129-29.994.52-34.198-3.565-1.495-1.453 33.155-5.719 67.846-5.607z" class="color5cbec6 svgShape"></path><path fill="#454f54" d="M2759.517 1936.37c-2.538-6.883-2.917-11.257-6.102-19.207 1.255-.683 2.501-1.371 3.75-2.053 1.633-.555 9.976 2.654 11.552-.325 2.684-5.076 6.839-5.123 8.027-2.171.274.687 2.293 6.855 2.538 7.312 1.08 2.022 2.044 3.912 2.976 5.685 3.475 6.618 6.462 11.498 12.962 14.504 14.249 6.584 18.439 13.38 19.173 16.828 1.228 5.744-37.073-.974-48.433-8.986-2.353-1.658-4.391-6-6.443-11.587zM2630.841 1920.619c-1.748-.567-14.839-10.746-15.732-7.899-.206.663-6.005 16.291-6.767 17.997-2.838 6.367-7.58 10.728-13.949 13.537-13.96 6.152-28.49 11.58-28.86 14.916-.619 5.555 49.12.78 59.939-6.808 2.24-1.571 3.854-5.752 5.341-11.141 1.842-6.64 1.74-10.88 4.13-18.545-1.372-.685-2.736-1.374-4.102-2.057z" class="color404859 svgShape"></path><path fill="#515e64" d="M2610.789 1297.34c-52.385 21.797-66.936 157.395-66.936 157.395s17.07 47.261 76.934-2.181c26.56-21.936 30.046-171.877-9.998-155.214z" class="color36717f svgShape"></path><path fill="#515e64" d="M2516.027 1358.247s11.162 84.39 27.607 103.092 39.981 8.442 43.73-5.838-41.591-101.26-50.04-104.578c-8.449-3.319-22.7-2.327-21.297 7.324z" class="color36717f svgShape"></path><path fill="#505b61" d="M2641.452 1928.302c-4.909-.222-38.005 3.095-52.002-2.048 1.522-9.469 4.328-481.66 4.328-481.66s57.042-6.615 80.318 9.146-29.524 460.983-32.644 474.562z" class="color4b5266 svgShape"></path><path fill="#505b61" d="M2798.732 1921.255c-1.371.55-40.629 6.89-68.481 1.134-25.024-74.776-108.911-468.603-108.911-468.603l90.243-4.538s15.76 22.521 18.307 37.344c.627 3.641 54.466 367.164 68.842 434.663z" class="color4b5266 svgShape"></path><path fill="#30373a" d="M2595.996 1533.445s27.919 16.554 65.138 24.803c27.976 6.2 64.447 8.172 80.837 8.768a60085.16 60085.16 0 0 1-3.01-19.989c-10.89-.244-36.269-1.094-61.513-3.985-33.395-3.823-81.452-9.597-81.452-9.597z" class="color2b313f svgShape"></path><path fill="#86959c" d="M2746.89 1555.463c1.331-.862-9.792-100.317-11.999-124.276-3.356-36.442 6.911-98.753-35.909-128.049-32.371-22.147-79.673-15.968-100.507-1.341-37.419 26.27-7.356 218.818-10.891 228.277 0-.001 89.287 38.693 159.306 25.389z" class="color5cbec6 svgShape"></path><path fill="#ffffff" d="M2584.031 1263.589a307.498 307.498 0 0 0-43.365-96.789l-30.265-44.761c-5.509-8.148-16.58-10.287-24.728-4.778l-24.448 16.53-5.415-8.009c-5.509-8.148-16.58-10.287-24.728-4.778l-33.72 22.8c-5.509-8.148-16.58-10.287-24.728-4.778l-34.142 23.085-43.177-63.858c-9.838-14.549-29.607-18.369-44.157-8.532-14.549 9.838-18.369 29.607-8.531 44.157l97.897 144.787a78.691 78.691 0 0 0-73.374 7.845l-5.507 3.724c-7.179 4.854-9.063 14.608-4.21 21.786a92.29 92.29 0 0 0 37.426 31.937l188.635 88.021 122.237-82.65-21.7-85.739z" class="colorfff svgShape"></path><path fill="#465156" d="M2483.495 1444.442c-1.792 0-3.591-.386-5.269-1.169l-188.636-88.021a104.772 104.772 0 0 1-42.481-36.25c-4.212-6.229-5.746-13.726-4.32-21.11 1.427-7.383 5.644-13.769 11.873-17.981l5.507-3.724c15.887-10.742 34.432-16.05 53.065-15.632l-80.932-119.696c-6.623-9.794-9.035-21.581-6.792-33.19 2.243-11.609 8.873-21.649 18.667-28.272 9.795-6.622 21.583-9.032 33.19-6.791 11.609 2.243 21.649 8.873 28.272 18.667l36.197 53.533 23.817-16.104c10.149-6.863 23.007-6.724 32.828-.699l25.621-17.323c13.047-8.823 30.57-6.075 40.361 5.877l14.229-9.62c13.828-9.35 32.682-5.707 42.032 8.121l30.265 44.761c20.821 30.793 36.002 64.677 45.123 100.711l21.702 85.74a12.46 12.46 0 0 1-5.101 13.382l-122.237 82.65a12.442 12.442 0 0 1-6.981 2.14zm-172.281-158.979a66.157 66.157 0 0 0-37.083 11.373l-5.507 3.724a3.17 3.17 0 0 0-1.361 2.062 3.171 3.171 0 0 0 .495 2.419 79.834 79.834 0 0 0 32.372 27.624l182.236 85.034 109.138-73.794-19.555-77.258a294.2 294.2 0 0 0-41.608-92.867l-30.265-44.76a5.349 5.349 0 0 0-7.422-1.434l-24.448 16.53a12.463 12.463 0 0 1-17.305-3.344l-5.415-8.009a5.352 5.352 0 0 0-7.422-1.434l-33.721 22.8c-5.7 3.855-13.449 2.359-17.305-3.343a5.353 5.353 0 0 0-7.423-1.434l-34.141 23.085a12.466 12.466 0 0 1-17.305-3.344l-43.178-63.858a19.21 19.21 0 0 0-12.351-8.156 19.223 19.223 0 0 0-14.5 2.967 19.21 19.21 0 0 0-8.156 12.351 19.207 19.207 0 0 0 2.967 14.5l97.897 144.787a12.462 12.462 0 0 1-14.965 18.548 66.235 66.235 0 0 0-24.669-4.769z" class="color434a59 svgShape"></path><path fill="#465156" d="M2369.076 1219.792a12.449 12.449 0 0 1-10.335-5.483l-37.905-56.06c-3.855-5.702-2.359-13.45 3.343-17.305 5.701-3.855 13.449-2.359 17.305 3.343l37.905 56.06c3.855 5.702 2.358 13.45-3.343 17.305a12.414 12.414 0 0 1-6.97 2.14zM2427.661 1201.063a12.449 12.449 0 0 1-10.335-5.483l-30.288-44.794c-3.855-5.702-2.358-13.45 3.343-17.305 5.702-3.855 13.45-2.359 17.305 3.343l30.288 44.794c3.855 5.702 2.358 13.45-3.343 17.305a12.406 12.406 0 0 1-6.97 2.14zM2364.838 1327.073a12.449 12.449 0 0 1-10.335-5.483l-24.302-35.942c-3.855-5.702-2.358-13.45 3.343-17.305 5.703-3.855 13.449-2.36 17.305 3.343l24.302 35.942c3.855 5.702 2.358 13.45-3.343 17.305a12.414 12.414 0 0 1-6.97 2.14zM2490.735 1189.881a12.45 12.45 0 0 1-10.336-5.484l-29.497-43.626c-3.855-5.702-2.358-13.449 3.344-17.305 5.702-3.858 13.45-2.359 17.305 3.344l29.497 43.626c3.855 5.702 2.358 13.449-3.344 17.305a12.397 12.397 0 0 1-6.969 2.14z" class="color434a59 svgShape"></path><path fill="#b6bfc3" d="M2560.6 1322.771c1.74-8.269 8.557-17.295 2.009-15.934-6.548 1.361-7.76 10.037-12.238 11.445-4.478 1.409-16.325-24.694-20.359-21.349-2.679 2.221 6.885 14.997 5.88 15.272-1.005.276-9.146-13.263-12.365-10.341-3.947 3.584-5.476 9.782-3.387 16.153-1.582-1.368-3.13-2.231-4.054-1.51-2.484 1.938 25.23 46.144 39.594 25.336 3.108-4.499 2.241-6.34 4.92-19.072z" class="colorff867a svgShape"></path><path fill="#86959c" d="M2681.266 1315.984c-22.96 9.835-32.313 106.438-56.144 106.876-30.048.552-56.325-92.201-56.325-92.201s-40.641 8.989-41.074 21.038c-1.347 37.507 37.946 106.558 77.085 121.159 54.188 20.214 96.806-78.478 109.39-119.672 8.346-27.321-17.582-43.775-32.932-37.2z" class="color5cbec6 svgShape"></path><path fill="#465156" d="M2619.405 1253.211s-8.019-14.081.96-20.564c-1.51-14.526 15.658-10.698 23.565-3.992 6.894 2.48 12.15 3.992 12.058 17.658-.035 5.246-5.553 18.523-5.553 18.523s-23.3-.348-31.03-11.625z" class="color434a59 svgShape"></path><path fill="#b6bfc3" d="m2646.535 1253.49 12.609 33.07c.134 4.36-16.398 13.724-23.403 8.357-2.05-1.571-.243-33.493-.243-33.493l11.037-7.934z" class="colorff867a svgShape"></path><path fill="#8c9aa1" d="M2641.477 1271.532c-.739.956-4.112 2.456-6.555 3.453a364.043 364.043 0 0 0-.142 6.6c2.243-.615 6.92-2.17 9.15-4.935 2.993-3.711 3.339-10.366 3.339-10.366s-4.605 3.713-5.792 5.248z" class="colorc66c67 svgShape"></path><path fill="#b6bfc3" d="m2645.616 1248.673.92 9.85c2.939 5.561-.502 12.765-3.786 15.612-2.263 1.962-4.867 2.824-11.068 3.625-5.167.668-8.961-3.489-10.632-10.059-2.167-8.523-1.74-16.989-1.258-21.506.514-4.818 2.622-8.48 6.044-9.647 2.011 3.383 10.927 11.234 19.78 12.125z" class="colorff867a svgShape"></path><path fill="#ffffff" d="M2633.272 1262.081s-5.068 1.504-11.797 1.114c0 0 .315 5.384 5.18 5.924 3.186.355 6.019-3.681 6.617-7.038z" class="colorfff svgShape"></path><path fill="#b6bfc3" d="M2643.357 1255.032c.393-1.245 1.013-5.377 1.125-6.695.212-2.505.256-6.15 3.907-3.733 5.311 3.516 2.617 13.985-1.079 14.681-1.801.339-4.942-1.117-3.953-4.253z" class="colorff867a svgShape"></path><path fill="#ffffff" d="M2642.47 1295.855s13.225-9.841 14.549-15.202c0 0 6.172 6.036 6.517 12.179.224 3.98-9.326 15.975-11.163 15.901-3.345-3.29-10.638-11.159-10.638-11.159s-9.034 6.683-12.094 8.679c-.974-1.781 4.888-17.434 4.888-17.434l7.941 7.036z" class="colorfff svgShape"></path><path fill="#515e64" d="M2622.339 1479.454c-14.309 0-28.564-7.065-43.394-21.257a1.68 1.68 0 0 1 2.324-2.429c25.245 24.161 48.664 26.561 73.705 7.555 41.002-31.127 48.517-84.6 48.589-85.137a1.687 1.687 0 0 1 1.885-1.445c.92.121 1.567.966 1.445 1.885-.072.55-7.746 55.38-49.888 87.372-11.801 8.96-23.251 13.456-34.666 13.456z" class="color36717f svgShape"></path><path fill="#515e64" d="M2623.722 1424.577c-10.257 0-11.389-5.926-11.435-6.19a1.68 1.68 0 0 1 3.305-.603c.055.225 1.078 3.815 9.442 3.399 12.047-.622 26.834-45.729 31.515-63.058a1.68 1.68 0 1 1 3.244.876c-1.787 6.618-17.946 64.679-34.585 65.537a28.33 28.33 0 0 1-1.486.039z" class="color36717f svgShape"></path><path fill="#30373a" d="M2669.367 1674.927a1.68 1.68 0 0 1-1.649-1.368c-13.544-71.444-32.991-114.186-33.186-114.61a1.679 1.679 0 1 1 3.052-1.405c.197.427 19.809 43.503 33.435 115.39a1.68 1.68 0 0 1-1.652 1.993z" class="color2b313f svgShape"></path><path fill="#30373a" d="M2646.131 1586.047c-.405 0-.811-.146-1.134-.441l-20.871-19.107a1.681 1.681 0 0 1 2.269-2.479l20.871 19.107a1.681 1.681 0 0 1-1.135 2.92z" class="color2b313f svgShape"></path><path fill="#829198" d="M2626.842 1258.553a13.983 13.983 0 0 1-3.552-.398c-1.376-.33-1.825 1.819-.453 2.149 1.358.326 2.743.466 4.139.441 1.414-.026 1.277-2.218-.134-2.192z" class="colorb76763 svgShape"></path><path fill="#465156" d="M2629.621 1251.573c-.167-.003-.684-.046-.889.586-.154.476-.205 1.065-.073 1.559.154.577.798.819 1.305.519.702-.418.777-2.647-.343-2.664zM2620.761 1252.435c-.167-.003-.684-.046-.889.586-.154.476-.205 1.065-.073 1.559.154.577.798.82 1.305.518.702-.416.777-2.645-.343-2.663zM2627.611 1246.275c.61-.5 1.797-.648 2.535-.455.762.199 1.685.664 2.157 1.344a.44.44 0 0 1 .141.234.313.313 0 0 1-.073.392.5.5 0 0 1-.642.196c-1.148-.471-2.558-.707-3.781-.729-.591-.01-.766-.799-.337-.982zM2619.23 1248.371a.408.408 0 0 1 .106-.09c.307-.177.667-.469 1.045-.71a.653.653 0 0 1 .077-.054l.031-.014c.561-.338 1.156-.531 1.679-.052a.355.355 0 0 1 .114.212c.15.267.106.662-.259.783-.815.269-1.627.545-2.414.897-.574.257-.878-.657-.379-.972z" class="color434a59 svgShape"></path><ellipse cx="589.848" cy="2078.151" fill="#86959c" rx="396.812" ry="26.15" class="color5cbec6 svgShape"></ellipse><path fill="#465156" d="M878.305 2060.895c-8.047-3.716-8.935-10.965-12.253-17.888-.224-.467-1.362-10.34-1.356-11.126.026-3.398-9.611-12.615-14.326-5.632-9.293 13.764-18.741-8.223-18.334-2.392 1.211 17.355-7.296 45.13-.882 47.153 13.666 4.311 77.731 10.283 79.081 3.569.812-4.029-18.013-7.257-31.93-13.684z" class="color434a59 svgShape"></path><path fill="#454f54" d="M369.393 1805.664c.38-.352 19.758-11.201 20.511-11.428 3.253-.98-6.83-28.844-12.279-26.731-16.22 6.29-35.266 1.232-40.31 13.535-1.609 3.925-39.988 63.285-24.458 71.002 9.593 4.766 50.904-41.161 56.536-46.378z" class="color404859 svgShape"></path><path fill="#465156" d="M686.702 1299.933c23.707-31.358 154.2-49.509 187.608-49.806-5.626 35.699 5.648 61.277 16.273 103.555 8.582 34.151-.719 684.564-.719 684.564s-2.829 7.033-33.424.121c-29.406-6.644-50.934-15.518-50.934-15.518l-29.927-552.93s-40.637 95.577-82.01 180.795c-46.36 95.49-289.683 167.035-289.683 167.035s-15.831-15.149-25.788-32.952c-9.778-17.484-6.855-41.167-6.855-41.167l227.169-134.575c.001 0 74.829-291.317 88.29-309.122z" class="color434a59 svgShape"></path><path fill="#272c2f" d="M891.954 1366.423c-.395-6.324-.85-10.67-1.37-12.742a787.08 787.08 0 0 0-4.282-16.224l-205.129-10.421s27.061 13.733 88.935 24.696c47.981 8.502 100.624 13.069 121.846 14.691z" class="color262a30 svgShape"></path><path fill="#c2c9cd" d="M841.542 1052.101c-17.211 62.182 43.203 247.701 126.479 250.91 75.063 2.892 79.37-76.538 86.805-138.954 6.309-52.971 7.29-84.018-8.915-88.095-4.986-1.254-50.296-11.553-51.985.159-9.307 64.556-31.563 117.581-31.563 117.581s-45.197-119.413-85.704-145.133c-34.979-22.211-31.626-9.083-35.117 3.532z" class="colorb1d5de svgShape"></path><path fill="#ebedee" d="M676.571 1058.887c2.656-25.867 63.084-48.015 91.086-44.713 34.846 4.109 84.332 12.39 102.721 26.595 66.793 51.593 25.38 274.816 22.873 311.639-7.681 3.04-207.905-21.039-216.681-26.876.962-14.191 11.829-78.795 4.245-139.949-8.129-65.551-7.119-98.695-4.244-126.696z" class="colore7f2f2 svgShape"></path><path fill="#c2c9cd" d="M901.222 1285.997c-26.803 9.886-95.1 25.78-123.842 6.015-54.448-37.443-66.441-108.753-66.441-108.753s52.288 51.417 101.763 61.109c34.028 6.665 72.64-3.8 93.434-10.985-1.31 18.611-3.091 36.495-4.914 52.614z" class="colorb1d5de svgShape"></path><path fill="#637279" d="M756.038 945.884s-4.631-9.06 11.598-14.463c8.124-2.705 13.616-9.429 13.616-9.429s5.619-6.766 14.387-6.027c8.768.739 9.417 7.917 9.417 7.917s9.751-.882 12.217 9.591c2.466 10.473-6.019 21.11-19.679 21.536-2.722.085-5.398.198-8.004.271-.961 12.565-7.913 30.244-18.666 28.698-15.788-2.269-14.886-38.094-14.886-38.094z" class="color7f635d svgShape"></path><path fill="#b6bfc3" d="M770.774 965.262s-1.518 21.387-3.155 32.901c-.957 6.731-5.774 27.223-5.774 27.223 1.142 5.309 29.177 7.661 36.036-.918 2.008-2.511-8.403-58.584-8.403-58.584l-18.704-.622z" class="colorff867a svgShape"></path><path fill="#8c9aa1" d="M792.059 980.266c-7.292 1.387-16.454 3.772-16.454 3.772s2.595 9.184 12.305 14.352a24.705 24.705 0 0 0 7.602 2.574c-1.095-7.007-2.363-14.466-3.453-20.698z" class="colorc66c67 svgShape"></path><path fill="#b6bfc3" d="m778.426 949.81-7.085 23.137c-1.728 7.805 3.052 15.587 10.808 17.523 6.198 1.547 10.193 1.479 18.062.371 6.557-.923 9.806-7.294 9.64-15.908-.216-11.174-3.591-21.405-5.703-26.778-4.818-12.249-20-13.087-25.722 1.655z" class="colorff867a svgShape"></path><path fill="#8c9aa1" d="M802.086 982.253c-7.381-1.332-12.752 9.914-26.029-.388-2.477-1.922-3.854-6.627-4.562-9.425l-.155.506c-1.728 7.805 3.052 15.587 10.808 17.523 6.198 1.547 10.193 1.479 18.062.371 3.999-.563 6.761-3.16 8.275-7.05-1.306.237-4.144-1.13-6.399-1.537z" class="colorc66c67 svgShape"></path><path fill="#637279" d="M776.643 946.885s4.184 13.257 3.43 16.545c-.753 3.287-5.64 1.91-7.164-3.027-1.523-4.937-.767-13.954 3.734-13.518z" class="color7f635d svgShape"></path><path fill="#b6bfc3" d="M774.571 960.184c-.79-1.275-1.378-2.652-1.883-4.064-.96-2.684-3.008-6.449-6.289-3.068-4.773 4.919 1.123 18.937 8.145 17.654 5.215-.951 2.018-7.311.027-10.522z" class="colorff867a svgShape"></path><path fill="#ffffff" d="m790.876 967.969 15.093-2.235s.757 6.436-2.158 8.106c-3.706 2.125-9.678-.169-12.935-5.871z" class="colorfff svgShape"></path><path fill="#8c9aa1" d="M799.595 963.072a9.289 9.289 0 0 0 3.509-2.811c.72-.934 2.028.35 1.316 1.274a10.458 10.458 0 0 1-3.88 3.107c-1.059.494-2.012-1.072-.945-1.57z" class="colorc66c67 svgShape"></path><path fill="#465156" d="M790.587 952.548c.219-.044.892-.227 1.278.538.29.576.466 1.323.382 1.992a1.217 1.217 0 0 1-1.623.989c-1.001-.366-1.509-3.221-.037-3.519zM803.825 952.472c.22-.044.892-.227 1.278.538.29.576.466 1.323.383 1.992a1.217 1.217 0 0 1-1.623.989c-1.002-.366-1.51-3.221-.038-3.519z" class="color434a59 svgShape"></path><path fill="#637279" d="M792.782 947.797c-.899-.566-2.51-.565-3.464-.184-.986.394-2.141 1.17-2.657 2.159a.603.603 0 0 0-.147.331l-.003.006a.423.423 0 0 0 .163.512.675.675 0 0 0 .891.155c1.455-.823 3.3-1.374 4.932-1.609.787-.114.888-1.198.285-1.37zM804.826 948.238a.584.584 0 0 0-.16-.099c-.444-.175-.981-.493-1.533-.739a.734.734 0 0 0-.113-.056l-.045-.012c-.814-.339-1.646-.479-2.247.262a.476.476 0 0 0-.109.305c-.147.385-.011.903.5.992 1.139.198 2.275.405 3.394.718.815.227 1.04-1.051.313-1.371z" class="color7f635d svgShape"></path><path fill="#ffffff" d="M787.738 1022.213s9.982-12.231 11.259-11.492 5.005 16.442 5.005 16.442-5.402 10.528-7.071 10.278c-1.669-.25-9.215-7.267-9.215-7.267s-7.632 11.143-9.103 11.139c-1.471-.004-21.047-14.035-21.047-14.035s5.281-14.267 6.949-13.619c1.668.647 23.223 8.554 23.223 8.554z" class="colorfff svgShape"></path><path fill="#272c2f" d="M775.041 1472.311c-.034-.008-.069-.016-.104-.026a2.451 2.451 0 0 1-1.724-3.008c.053-.195 5.386-19.745 13.47-40.309 11.028-28.055 21.753-44.605 31.877-49.189a2.452 2.452 0 1 1 2.023 4.467c-8.791 3.981-18.93 20.052-29.321 46.478-7.99 20.318-13.264 39.645-13.316 39.838a2.452 2.452 0 0 1-2.905 1.749zM591.757 1667.92a2.451 2.451 0 0 1-1.894-2.655l6.112-56.474a2.453 2.453 0 0 1 4.875.528l-6.113 56.474a2.453 2.453 0 0 1-2.98 2.127z" class="color262a30 svgShape"></path><path fill="#d7dcdf" d="m931.335 883.175 221.138 1.823c16.349.135 29.584 17.208 29.414 37.942-.171 20.733-13.687 37.586-30.035 37.451h-.048c-1.644-.014-2.328 2.619-1.024 3.883 7.166 6.953 11.767 17.946 11.666 30.225-.171 20.733-13.687 37.586-30.035 37.451l-6.331-.052c-1.644-.014-2.328 2.619-1.024 3.883 7.166 6.953 11.768 17.946 11.666 30.225-.171 20.733-13.687 37.586-30.035 37.451l-133.174-1.098c-16.348-.135-29.584-17.208-29.413-37.941.101-12.279 4.884-23.195 12.163-30.029 1.324-1.243.684-3.886-.96-3.9l-6.331-.052c-16.349-.135-29.584-17.208-29.414-37.941.101-12.279 4.884-23.195 12.163-30.029 1.324-1.243.684-3.886-.96-3.9h-.048c-16.349-.135-29.584-17.208-29.414-37.941.171-20.733 13.687-37.586 30.036-37.451z" class="coloreaeaea svgShape"></path><path fill="#aab4b9" d="M823.807 665.017c-.411 49.911 16.367 98.928 47.248 138.019 18.035 22.834 31.152 47.771 38.986 74.119 2.334 7.851 10.498 12.354 18.36 10.24 24.771.603 229.572 2.483 230.951 2.494 6.457.053 12.466-4.076 14.51-10.554 8.248-26.16 21.811-50.923 40.313-73.604 31.301-38.371 48.845-86.823 49.401-136.428 1.341-119.929-95.082-219.656-214.944-222.313-59.297-1.336-115.467 20.703-158.039 61.998-42.58 41.303-66.297 96.716-66.786 156.029z" class="colorffe164 svgShape"></path><path fill="#b3bcc0" d="M1106.687 1103.458s-3.704 61.234-67.17 64.336-66.004-65.434-66.004-65.434l133.174 1.098zM1037.386 1040.783c43.095.355 77.101-3.81 77.61-3.873a3.987 3.987 0 1 0-.992-7.913c-.755.094-76.238 9.329-144.376-1.184a3.988 3.988 0 0 0-1.216 7.882c23.213 3.581 47.25 4.909 68.974 5.088zM1035.762 971.106c57.8.476 103.405-3.579 104.087-3.642a3.986 3.986 0 0 0 3.609-4.332 3.986 3.986 0 0 0-4.332-3.609c-1.018.092-102.867 9.143-194.927-1.603-2.181-.262-4.168 1.311-4.423 3.498a3.987 3.987 0 0 0 3.498 4.423c31.13 3.634 63.359 5.025 92.488 5.265z" class="colorbab9b9 svgShape"></path><path fill="#71828b" d="M1064.008 814.352s53.698-49.973 59.124-128.057c5.425-78.083-105.974-175.948-105.974-175.948s-48.932 96.823-52.056 180.112c-3.124 83.289 98.906 123.893 98.906 123.893z" class="color47b574 svgShape"></path><path fill="#525f65" d="M1061.453 882.545a5.728 5.728 0 0 0 5.641-4.786c4.297-25.778 1.847-105.891-10.34-163.742-11.894-56.466-30.073-171.14-30.255-172.291a5.731 5.731 0 0 0-6.551-4.761 5.727 5.727 0 0 0-4.761 6.551c.183 1.155 18.407 116.116 30.361 172.863 11.734 55.697 14.307 135.155 10.25 159.498a5.725 5.725 0 0 0 5.655 6.668z" class="color308753 svgShape"></path><path fill="#525f65" d="M1019.948 536.965a5.733 5.733 0 0 1 6.551 4.761c.182 1.151 18.361 115.825 30.255 172.291 6.238 29.61 9.923 65.049 11.46 96.053-2.633 2.816-4.206 4.281-4.206 4.281s-2.724-1.086-7.249-3.253c-1.514-30.64-5.133-65.867-11.212-94.72-11.953-56.747-30.178-171.708-30.361-172.863a5.727 5.727 0 0 1 4.762-6.55z" class="color308753 svgShape"></path><path fill="#525f65" d="m1059.111 762.82 49.191-52.3a5.725 5.725 0 1 0-8.342-7.846l-43.472 46.219-68.697-32.656a5.726 5.726 0 1 0-4.916 10.343l76.236 36.24zM1045.324 689.255l62.174-45.178a5.726 5.726 0 0 0-6.732-9.264l-56.625 41.146-63.489-30.736a5.725 5.725 0 0 0-7.649 2.659 5.725 5.725 0 0 0 2.659 7.649l69.662 33.724zM1034.411 626.651l38.424-39.43a5.727 5.727 0 0 0-8.203-7.992l-32.044 32.883-34.786-21.279a5.726 5.726 0 0 0-5.976 9.77l42.585 26.048z" class="color308753 svgShape"></path><path fill="#ffffff" d="M1123.116 508.208c3.907 0 7.678-2.121 9.609-5.824 2.763-5.302.704-11.839-4.598-14.601-13.398-6.982-27.809-12.22-42.832-15.569-5.828-1.3-11.62 2.374-12.921 8.208-1.3 5.835 2.374 11.62 8.209 12.92 13.184 2.94 25.814 7.529 37.542 13.639a10.775 10.775 0 0 0 4.991 1.227zM1212.823 616.728c1.015 0 2.047-.143 3.069-.446 5.733-1.693 9.009-7.713 7.316-13.446-.649-2.194-16.399-54.175-62.681-93.259-4.562-3.857-11.395-3.281-15.253 1.286-3.857 4.568-3.281 11.397 1.287 15.254 41.378 34.943 55.744 82.375 55.884 82.85 1.392 4.71 5.705 7.761 10.378 7.761z" class="colorfff svgShape"></path><path fill="#b6bfc3" d="M1009.574 1105.041s-6.887-10.711-1.818-23.127c5.069-12.416 8.837-36.829 14.742-36.23 5.905.599.024 18.845 1.855 21.868 1.831 3.023 30.952-29.123 35.386-26.03s-8.8 17.213-8.8 17.213 11.692-10.282 15.596-9.578c3.905.703-.503 8.303-.503 8.303s5.838 2.313 4.924 5.599c-.913 3.286-10.507 12.136-10.507 12.136s9.441.386 5.334 6.066c-4.107 5.68-41.099 36.449-47.516 33.665s-8.693-9.885-8.693-9.885z" class="colorff867a svgShape"></path><path fill="#ebedee" d="m743.465 1064.274 87.259 118.25 170.699-111.236 37.05 54.406s-140.82 161.858-216.449 159.138c-75.629-2.72-136.772-145.021-140.852-178.34-1.53-12.494.852-25.788 5.969-36.895 10.415-22.605 41.546-25.35 56.324-5.323z" class="colore7f2f2 svgShape"></path><path fill="#c2c9cd" d="M822.025 1217.563c1.347 0 2.58-.896 2.951-2.258l6.723-24.712a16.706 16.706 0 0 1 7.004-9.616l69.239-45.12a3.06 3.06 0 0 0-3.341-5.129l-69.239 45.12a22.824 22.824 0 0 0-9.569 13.138l-6.723 24.713a3.06 3.06 0 0 0 2.955 3.864z" class="colorb1d5de svgShape"></path><path fill="#c2c9cd" d="M830.726 1185.584a3.061 3.061 0 0 0 2.461-4.878l-75.297-102.04a3.061 3.061 0 0 0-4.926 3.634l75.297 102.04a3.055 3.055 0 0 0 2.465 1.244z" class="colorb1d5de svgShape"></path><path fill="#465156" d="M1007.169 363.343a8.163 8.163 0 0 0 8.115-9.133l-13.526-113.016a8.158 8.158 0 0 0-9.075-7.135 8.163 8.163 0 0 0-7.135 9.075l13.526 113.016a8.164 8.164 0 0 0 8.095 7.193zM808.423 477.241a8.165 8.165 0 0 0 3.353-15.609l-50.27-22.604a8.16 8.16 0 0 0-10.793 4.097 8.165 8.165 0 0 0 4.097 10.792l50.27 22.604a8.126 8.126 0 0 0 3.343.72zM1205.507 426.171a8.158 8.158 0 0 0 7.02-3.986l23.441-39.348a8.161 8.161 0 0 0-2.834-11.19 8.161 8.161 0 0 0-11.191 2.835l-23.441 39.348a8.161 8.161 0 0 0 7.005 12.341zM1316.851 584.401c.417 0 .839-.032 1.263-.098l100.464-15.611a8.162 8.162 0 0 0 6.812-9.319c-.693-4.455-4.866-7.511-9.319-6.812l-100.464 15.611a8.162 8.162 0 0 0 1.244 16.229zM719.102 659.864h74.14a8.163 8.163 0 0 0 0-16.326h-74.14a8.163 8.163 0 0 0 0 16.326z" class="color434a59 svgShape"></path></svg></g></svg>